#!OML:ASF H:\ManfredETheater\Project 1\Capture day 1\Session 1\subject.ASF
:FULLY-SPECIFIED
:DEGREES
80
root 1.40996 16.0706 -3.76598 -5.93848 3.73204 -0.0295998
lowerback 4.36818 -0.526436 -3.26441
upperback 0.351622 -0.827286 1.54928
thorax -2.01867 -0.379189 3.4801
lowerneck -19.1746 -1.86879 -2.47018
upperneck 23.1742 -1.96598 0.399584
head 10.657 -1.07069 0.267733
rclavicle 3.15571e-015 -5.56597e-015
rhumerus 26.0859 3.68828 -43.4548
rradius 69.3982
rwrist 9.49632
rhand 6.51575 -21.6095
rfingers 7.12502
rthumb 31.8146 -48.8524
lclavicle 3.15571e-015 -5.56597e-015
lhumerus 25.7107 -1.3964 59.8052
lradius 74.7222
lwrist -23.4214
lhand 14.3594 16.1703
lfingers 7.12502
lthumb 39.2483 41.6188
rfemur -15.7352 -15.4521 8.18768
rtibia 63.4409
rfoot -33.3268 0.750152
rtoes -12.4866
lfemur -17.7576 5.58812 -10.4982
ltibia 63.6726
lfoot -34.5815 -3.4407
ltoes -13.1281
81
root 1.40828 16.0697 -3.76424 -5.94421 3.74722 -0.0273967
lowerback 4.36724 -0.535776 -3.27814
upperback 0.360145 -0.840367 1.54794
thorax -2.00809 -0.385965 3.48712
lowerneck -19.2231 -1.87284 -2.49393
upperneck 23.1993 -1.96652 0.413091
head 10.676 -1.07133 0.27598
rclavicle 5.04416e-015 2.10712e-014
rhumerus 26.1107 3.68939 -43.462
rradius 69.3936
rwrist 9.50653
rhand 6.52587 -21.5928
rfingers 7.12502
rthumb 31.8243 -48.8338
lclavicle 5.04416e-015 2.10712e-014
lhumerus 25.7263 -1.37313 59.7915
lradius 74.7197
lwrist -23.4234
lhand 14.4083 16.1756
lfingers 7.12502
lthumb 39.2944 41.6107
rfemur -15.722 -15.456 8.18677
rtibia 63.4556
rfoot -33.3405 0.751395
rtoes -12.4624
lfemur -17.7434 5.56478 -10.4955
ltibia 63.673
lfoot -34.5947 -3.42441
ltoes -13.1635
82
root 1.40673 16.0681 -3.76269 -5.95181 3.75104 -0.00532023
lowerback 4.38787 -0.531361 -3.30695
upperback 0.35456 -0.836772 1.53654
thorax -2.02547 -0.383515 3.49176
lowerneck -19.1929 -1.8743 -2.48966
upperneck 23.1719 -1.97119 0.41494
head 10.6602 -1.07285 0.275576
rclavicle -1.2424e-017 1.19271e-014
rhumerus 26.0939 3.69484 -43.4512
rradius 69.3993
rwrist 9.50258
rhand 6.53488 -21.6206
rfingers 7.12502
rthumb 31.8329 -48.8599
lclavicle -1.2424e-017 1.19271e-014
lhumerus 25.7285 -1.38772 59.7878
lradius 74.7107
lwrist -23.4242
lhand 14.3835 16.1914
lfingers 7.12502
lthumb 39.271 41.6333
rfemur -15.7132 -15.462 8.16096
rtibia 63.477
rfoot -33.3533 0.739964
rtoes -12.5046
lfemur -17.7289 5.5477 -10.5163
ltibia 63.6729
lfoot -34.5971 -3.39524
ltoes -13.2072
83
root 1.40513 16.0669 -3.76109 -5.94566 3.75374 0.0206324
lowerback 4.37274 -0.536642 -3.34206
upperback 0.356832 -0.845297 1.52629
thorax -2.01358 -0.387795 3.5012
lowerneck -19.2027 -1.87332 -2.49254
upperneck 23.1848 -1.96914 0.416594
head 10.6668 -1.07199 0.276828
rclavicle 8.69683e-016 3.18055e-015
rhumerus 26.1192 3.70213 -43.4598
rradius 69.3805
rwrist 9.53268
rhand 6.54099 -21.6043
rfingers 7.12502
rthumb 31.8387 -48.8425
lclavicle 8.69683e-016 3.18055e-015
lhumerus 25.7316 -1.36475 59.7672
lradius 74.7153
lwrist -23.4134
lhand 14.3603 16.2043
lfingers 7.12502
lthumb 39.2492 41.6525
rfemur -15.7192 -15.4635 8.13507
rtibia 63.5009
rfoot -33.3826 0.735763
rtoes -12.5513
lfemur -17.7302 5.53932 -10.5425
ltibia 63.68
lfoot -34.6072 -3.40799
ltoes -13.1076
84
root 1.40329 16.0654 -3.75952 -5.94732 3.78466 0.104824
lowerback 4.3805 -0.544501 -3.44581
upperback 0.357035 -0.861556 1.50512
thorax -2.01516 -0.395079 3.53894
lowerneck -19.1738 -1.87276 -2.48848
upperneck 23.1497 -1.96614 0.400976
head 10.6482 -1.07219 0.271333
rclavicle 1.37907e-014 -1.59028e-014
rhumerus 26.1259 3.71608 -43.4452
rradius 69.3904
rwrist 9.54141
rhand 6.55784 -21.5909
rfingers 7.12502
rthumb 31.8547 -48.8259
lclavicle 1.37907e-014 -1.59028e-014
lhumerus 25.73 -1.35065 59.7599
lradius 74.7093
lwrist -23.4305
lhand 14.3774 16.1772
lfingers 7.12502
lthumb 39.2653 41.6207
rfemur -15.7089 -15.4897 8.03071
rtibia 63.531
rfoot -33.4034 0.74854
rtoes -12.5475
lfemur -17.7203 5.50412 -10.6365
ltibia 63.6838
lfoot -34.6149 -3.38702
ltoes -13.1278
85
root 1.40172 16.0618 -3.75832 -5.9463 3.78188 0.0741577
lowerback 4.37608 -0.547103 -3.42031
upperback 0.343519 -0.86369 1.50728
thorax -2.02677 -0.39589 3.52696
lowerneck -19.1113 -1.87572 -2.49016
upperneck 23.1316 -1.97217 0.40309
head 10.6298 -1.07496 0.272055
rclavicle -5.65294e-015 -1.98785e-015
rhumerus 26.11 3.74469 -43.4438
rradius 69.3889
rwrist 9.5438
rhand 6.5178 -21.6001
rfingers 7.12502
rthumb 31.8166 -48.8427
lclavicle -5.65294e-015 -1.98785e-015
lhumerus 25.6975 -1.3616 59.7341
lradius 74.7221
lwrist -23.4215
lhand 14.3365 16.1846
lfingers 7.12502
lthumb 39.2268 41.6393
rfemur -15.7208 -15.5378 8.05584
rtibia 63.5687
rfoot -33.4367 0.784792
rtoes -12.5448
lfemur -17.732 5.50991 -10.5892
ltibia 63.7084
lfoot -34.6324 -3.39064
ltoes -13.1337
86
root 1.39977 16.0602 -3.75694 -5.94064 3.7941 0.0759308
lowerback 4.36808 -0.553096 -3.43737
upperback 0.347498 -0.872235 1.50765
thorax -2.01719 -0.40028 3.53731
lowerneck -19.1281 -1.87752 -2.47558
upperneck 23.1283 -1.96998 0.370339
head 10.6312 -1.0767 0.258069
rclavicle 1.00262e-014 -2.78299e-015
rhumerus 26.1176 3.75129 -43.4276
rradius 69.3897
rwrist 9.56076
rhand 6.51065 -21.5691
rfingers 7.12502
rthumb 31.8098 -48.813
lclavicle 1.00262e-014 -2.78299e-015
lhumerus 25.713 -1.34292 59.7427
lradius 74.7216
lwrist -23.4533
lhand 14.3886 16.1898
lfingers 7.12502
lthumb 39.2759 41.6302
rfemur -15.7315 -15.5427 8.06207
rtibia 63.5891
rfoot -33.444 0.777986
rtoes -12.5165
lfemur -17.7451 5.49582 -10.5831
ltibia 63.7167
lfoot -34.6382 -3.38794
ltoes -13.1939
87
root 1.39903 16.0585 -3.75591 -5.93594 3.81127 0.107554
lowerback 4.37348 -0.560688 -3.46114
upperback 0.336982 -0.884162 1.4896
thorax -2.02995 -0.405653 3.53292
lowerneck -19.0974 -1.87546 -2.4789
upperneck 23.1106 -1.96769 0.373298
head 10.6189 -1.07562 0.260331
rclavicle 1.60022e-014 -1.19271e-015
rhumerus 26.1304 3.76162 -43.4462
rradius 69.389
rwrist 9.56762
rhand 6.52989 -21.576
rfingers 7.12502
rthumb 31.8281 -48.8163
lclavicle 1.60022e-014 -1.19271e-015
lhumerus 25.706 -1.33656 59.741
lradius 74.7215
lwrist -23.4573
lhand 14.3543 16.19
lfingers 7.12502
lthumb 39.2435 41.6398
rfemur -15.7396 -15.5726 8.0161
rtibia 63.6242
rfoot -33.4615 0.799589
rtoes -12.5169
lfemur -17.7525 5.47233 -10.6212
ltibia 63.7354
lfoot -34.6367 -3.37456
ltoes -13.1418
88
root 1.3978 16.0608 -3.75381 -5.93578 3.82766 0.109004
lowerback 4.36262 -0.564993 -3.4644
upperback 0.348084 -0.889749 1.48437
thorax -2.01197 -0.409002 3.52936
lowerneck -19.1094 -1.87971 -2.48253
upperneck 23.1023 -1.97098 0.369039
head 10.6182 -1.07791 0.25885
rclavicle -6.72141e-015 5.96354e-015
rhumerus 26.1277 3.75001 -43.437
rradius 69.3997
rwrist 9.55279
rhand 6.50824 -21.5758
rfingers 7.12502
rthumb 31.8075 -48.8201
lclavicle -6.72141e-015 5.96354e-015
lhumerus 25.7221 -1.32848 59.7393
lradius 74.7306
lwrist -23.4453
lhand 14.3497 16.2073
lfingers 7.12502
lthumb 39.2391 41.6584
rfemur -15.7214 -15.5646 8.0218
rtibia 63.6274
rfoot -33.4785 0.783178
rtoes -12.4972
lfemur -17.7416 5.45443 -10.6212
ltibia 63.7292
lfoot -34.6455 -3.35623
ltoes -13.2199
89
root 1.39604 16.0553 -3.75379 -5.92558 3.84585 0.125327
lowerback 4.37464 -0.567925 -3.49084
upperback 0.336256 -0.895607 1.47604
thorax -2.03013 -0.411145 3.53633
lowerneck -19.0918 -1.88256 -2.48055
upperneck 23.0914 -1.9753 0.366067
head 10.6109 -1.0801 0.257003
rclavicle 1.61513e-014 -9.93923e-016
rhumerus 26.1236 3.74961 -43.4446
rradius 69.395
rwrist 9.55361
rhand 6.49944 -21.574
rfingers 7.12502
rthumb 31.7991 -48.82
lclavicle 1.61513e-014 -9.93923e-016
lhumerus 25.7187 -1.33635 59.7386
lradius 74.7272
lwrist -23.4157
lhand 14.3285 16.2081
lfingers 7.12502
lthumb 39.2192 41.665
rfemur -15.7516 -15.6355 7.99035
rtibia 63.6703
rfoot -33.486 0.830767
rtoes -12.511
lfemur -17.773 5.44594 -10.6301
ltibia 63.7492
lfoot -34.6372 -3.37518
ltoes -13.193
90
root 1.39527 16.0576 -3.75191 -5.91939 3.85402 0.131378
lowerback 4.36188 -0.574428 -3.49228
upperback 0.339894 -0.904056 1.46949
thorax -2.01857 -0.415686 3.53059
lowerneck -19.1171 -1.87743 -2.47882
upperneck 23.1003 -1.96952 0.372116
head 10.6189 -1.07651 0.259492
rclavicle 6.34869e-015 5.1684e-015
rhumerus 26.1304 3.75358 -43.4571
rradius 69.3963
rwrist 9.53888
rhand 6.45534 -21.6062
rfingers 7.12502
rthumb 31.7571 -48.8606
lclavicle 6.34869e-015 5.1684e-015
lhumerus 25.7103 -1.32837 59.7338
lradius 74.741
lwrist -23.4292
lhand 14.3162 16.2163
lfingers 7.12502
lthumb 39.2076 41.6766
rfemur -15.74 -15.6195 7.99156
rtibia 63.6715
rfoot -33.4941 0.821781
rtoes -12.4782
lfemur -17.7664 5.43493 -10.6367
ltibia 63.743
lfoot -34.6291 -3.40217
ltoes -13.1467
